<?xml version="1.0" encoding="UTF-8"?>
<svg id="Layer_2" data-name="Layer 2" xmlns="http://www.w3.org/2000/svg" viewBox="0 0 480 180.79">
  <defs>
    <style>
      .cls-1 {
        fill: #c40c24;
      }

      .cls-2 {
        fill: #3d3839;
      }

      .cls-3 {
        fill: #fff;
      }

      .cls-4 {
        fill: #232323;
      }

      .cls-5 {
        fill: #4d070f;
      }
    </style>
  </defs>
  <g id="Layer_1-2" data-name="Layer 1">
    <g>
      <path class="cls-1" d="M0,0v180.79h147.22c1.33-50.03,42.44-90.32,92.78-90.32s91.45,40.29,92.78,90.32h147.22V0H0Z"/>
      <path class="cls-3" d="M480,175.79h-107.41c-3.89-69.86-61.76-125.32-132.59-125.32s-128.7,55.46-132.59,125.32H0v5h107.21s5,0,5,0h35s0,0,0,0c.02-.84.06-1.67.1-2.5,0-.02,0-.03,0-.05.05-.82.1-1.64.17-2.45h0c3.83-47.69,43.86-85.32,92.51-85.32s88.68,37.63,92.51,85.32h0c.06.81.12,1.62.16,2.43,0,.02,0,.05,0,.07.05.83.08,1.66.1,2.5,0,0,0,0,0,0h40s107.21,0,107.21,0v-5Z"/>
      <path class="cls-4" d="M240,90.47c50.34,0,91.45,40.29,92.78,90.32h35c-1.34-69.33-58.14-125.32-127.79-125.32s-126.45,55.99-127.79,125.32h35c1.33-50.03,42.44-90.32,92.78-90.32Z"/>
      <path class="cls-5" d="M377.25,170.79c-2.87-32.09-16.74-61.89-39.8-84.95-24.12-24.12-55.6-38.19-89.37-40.12.95-1.48,1.5-3.23,1.5-5.11,0-5.24-4.26-9.5-9.5-9.5s-9.5,4.26-9.5,9.5c0,1.88.55,3.63,1.5,5.1-33.84,1.9-65.38,15.98-89.53,40.13s-36.94,52.86-39.8,84.95H0v5h107.41c.04-.8.1-1.6.15-2.4,5.07-68.73,62.42-122.92,132.44-122.92s127.37,54.19,132.44,122.92c.06.8.11,1.6.15,2.4h107.41v-5h-102.75ZM240.08,36.1c2.48,0,4.5,2.02,4.5,4.5s-2.02,4.5-4.5,4.5-4.5-2.02-4.5-4.5,2.02-4.5,4.5-4.5Z"/>
      <circle class="cls-2" cx="240.08" cy="40.6" r="4.9"/>
    </g>
  </g>
</svg>