<?xml version="1.0" encoding="UTF-8"?>
<svg id="Layer_2" data-name="Layer 2" xmlns="http://www.w3.org/2000/svg" viewBox="0 0 480 103.5">
  <defs>
    <style>
      .cls-1 {
        fill: #51040c;
      }
    </style>
  </defs>
  <g id="Layer_1-2" data-name="Layer 1">
    <g>
      <g>
        <path class="cls-1" d="M0,58.17v-5h1c28.76,0,52.17-23.4,52.17-52.17V0h5v1c0,31.52-25.65,57.17-57.17,57.17H0Z"/>
        <path class="cls-1" d="M0,103.5v-5h1c53.76,0,97.5-43.74,97.5-97.5V0h5s0,1,0,1c0,56.52-45.98,102.5-102.5,102.5H0Z"/>
      </g>
      <g>
        <path class="cls-1" d="M480,58.17v-5s-1,0-1,0c-28.76,0-52.17-23.4-52.17-52.17V0s-5,0-5,0v1c0,31.52,25.65,57.17,57.17,57.17h1Z"/>
        <path class="cls-1" d="M480,103.5v-5s-1,0-1,0c-53.76,0-97.5-43.74-97.5-97.5V0s-5,0-5,0v1c0,56.52,45.98,102.5,102.5,102.5h1Z"/>
      </g>
    </g>
  </g>
</svg>